<svg xmlns="http://www.w3.org/2000/svg" viewBox="0 0 24 24"><path fill-rule="evenodd" d="M10 4h4c3.7712 0 5.6569 0 6.8284 1.17157C22 6.34315 22 8.22876 22 12c0 3.7712 0 5.6569-1.1716 6.8284C19.6569 20 17.7712 20 14 20h-4c-3.77124 0-5.65685 0-6.82843-1.1716C2 17.6569 2 15.7712 2 12c0-3.77124 0-5.65685 1.17157-6.82843C4.34315 4 6.22876 4 10 4Zm3.25 5c0-.41421.3358-.75.75-.75h5c.4142 0 .75.33579.75.75s-.3358.75-.75.75h-5c-.4142 0-.75-.33579-.75-.75Zm1 3c0-.4142.3358-.75.75-.75h4c.4142 0 .75.3358.75.75s-.3358.75-.75.75h-4c-.4142 0-.75-.3358-.75-.75Zm1 3c0-.4142.3358-.75.75-.75h3c.4142 0 .75.3358.75.75s-.3358.75-.75.75h-3c-.4142 0-.75-.3358-.75-.75ZM11 9c0 1.1046-.8954 2-2 2-1.10457 0-2-.8954-2-2 0-1.10457.89543-2 2-2 1.1046 0 2 .89543 2 2Zm-2 8c4 0 4-.8954 4-2s-1.7909-2-4-2c-2.20914 0-4 .8954-4 2s0 2 4 2Z" clip-rule="evenodd"/></svg>